<svg width="32" height="33" viewBox="0 0 32 33" fill="none" xmlns="http://www.w3.org/2000/svg">
<g id="edit-3">
<rect y="0.76416" width="32" height="32" rx="4" fill="#300B50" fill-opacity="0.1"/>
<path id="Vector" d="M15 24.2773H24" stroke="black" stroke-width="2" stroke-linecap="round" stroke-linejoin="round"/>
<path id="Vector_2" d="M19.5 8.27779C19.8978 7.89202 20.4374 7.67529 21 7.67529C21.2786 7.67529 21.5544 7.7285 21.8118 7.83188C22.0692 7.93525 22.303 8.08677 22.5 8.27779C22.697 8.4688 22.8532 8.69557 22.9598 8.94514C23.0665 9.19471 23.1213 9.4622 23.1213 9.73233C23.1213 10.0025 23.0665 10.27 22.9598 10.5195C22.8532 10.7691 22.697 10.9959 22.5 11.1869L10 23.3081L6 24.2778L7 20.399L19.5 8.27779Z" stroke="black" stroke-width="2" stroke-linecap="round" stroke-linejoin="round"/>
</g>
</svg>
