<svg width="62" height="63" viewBox="0 0 62 63" fill="none" xmlns="http://www.w3.org/2000/svg">
<g id="instagram">
<path id="Vector" d="M43.915 5.94824H18.0817C10.948 5.94824 5.16504 11.7312 5.16504 18.8649V44.6982C5.16504 51.8319 10.948 57.6149 18.0817 57.6149H43.915C51.0487 57.6149 56.8317 51.8319 56.8317 44.6982V18.8649C56.8317 11.7312 51.0487 5.94824 43.915 5.94824Z" stroke="#300B50" stroke-width="5.09616" stroke-linecap="round" stroke-linejoin="round"/>
<path id="Vector_2" d="M41.3332 30.154C41.652 32.304 41.2848 34.4998 40.2838 36.429C39.2827 38.3582 37.6989 39.9227 35.7574 40.8999C33.816 41.877 31.6159 42.2172 29.47 41.8719C27.3241 41.5266 25.3418 40.5134 23.8049 38.9765C22.268 37.4397 21.2549 35.4573 20.9096 33.3114C20.5643 31.1655 20.9044 28.9654 21.8816 27.024C22.8587 25.0826 24.4232 23.4987 26.3524 22.4977C28.2817 21.4966 30.4774 21.1294 32.6274 21.4482C34.8204 21.7734 36.8508 22.7953 38.4184 24.363C39.9861 25.9307 41.008 27.961 41.3332 30.154Z" stroke="#300B50" stroke-width="5.09616" stroke-linecap="round" stroke-linejoin="round"/>
<path id="Vector_3" d="M45.209 17.5732H45.2355" stroke="#300B50" stroke-width="5.09616" stroke-linecap="round" stroke-linejoin="round"/>
</g>
</svg>
