<svg width="24" height="25" viewBox="0 0 24 25" fill="none" xmlns="http://www.w3.org/2000/svg">
<g id="instagram">
<path id="Vector" d="M17 2.24023H7C4.23858 2.24023 2 4.47881 2 7.24023V17.2402C2 20.0017 4.23858 22.2402 7 22.2402H17C19.7614 22.2402 22 20.0017 22 17.2402V7.24023C22 4.47881 19.7614 2.24023 17 2.24023Z" stroke="white" stroke-width="2" stroke-linecap="round" stroke-linejoin="round"/>
<path id="Vector_2" d="M16 11.6105C16.1234 12.4428 15.9812 13.2928 15.5937 14.0396C15.2062 14.7863 14.5931 15.3919 13.8416 15.7702C13.0901 16.1485 12.2384 16.2801 11.4077 16.1465C10.5771 16.0128 9.80971 15.6206 9.21479 15.0257C8.61987 14.4308 8.22768 13.6634 8.09402 12.8327C7.96035 12.0021 8.09202 11.1504 8.47028 10.3989C8.84854 9.64739 9.45414 9.03428 10.2009 8.64678C10.9477 8.25928 11.7977 8.11712 12.63 8.24054C13.4789 8.36642 14.2648 8.762 14.8716 9.36884C15.4785 9.97569 15.8741 10.7616 16 11.6105Z" stroke="white" stroke-width="2" stroke-linecap="round" stroke-linejoin="round"/>
<path id="Vector_3" d="M17.5 6.74023H17.51" stroke="white" stroke-width="2" stroke-linecap="round" stroke-linejoin="round"/>
</g>
</svg>
