<svg width="57" height="57" viewBox="0 0 57 57" fill="none" xmlns="http://www.w3.org/2000/svg">
<g id="Frame" clip-path="url(#clip0_65_238)">
<path id="Vector" d="M48.3767 47.6761H40.084V35.2265C40.084 32.2577 40.021 28.4372 35.7627 28.4372C31.439 28.4372 30.7787 31.6675 30.7787 35.0074V47.6761H22.486V22.0748H30.452V25.5645H30.5593C31.6723 23.5525 34.379 21.4288 38.4227 21.4288C46.825 21.4288 48.379 26.727 48.379 33.6236L48.3767 47.6761ZM13.12 18.5718C10.4507 18.5718 8.30632 16.5017 8.30632 13.9554C8.30632 11.4114 10.453 9.3435 13.12 9.3435C15.78 9.3435 17.936 11.4114 17.936 13.9554C17.936 16.5017 15.7777 18.5718 13.12 18.5718ZM17.278 47.6761H8.96199V22.0748H17.278V47.6761ZM52.5253 1.95508H4.79933C2.51499 1.95508 0.666992 3.68538 0.666992 5.82031V51.7425C0.666992 53.8797 2.51499 55.6078 4.79933 55.6078H52.5183C54.8003 55.6078 56.667 53.8797 56.667 51.7425V5.82031C56.667 3.68538 54.8003 1.95508 52.5183 1.95508H52.5253Z" fill="#300B50"/>
</g>
<defs>
<clipPath id="clip0_65_238">
<rect width="56" height="56" fill="white" transform="translate(0.666992 0.78125)"/>
</clipPath>
</defs>
</svg>
