<svg width="24" height="25" viewBox="0 0 24 25" fill="none" xmlns="http://www.w3.org/2000/svg">
<g id="Frame" clip-path="url(#clip0_65_76)">
<path id="Vector" d="M20.447 20.6922H16.893V15.1232C16.893 13.7952 16.866 12.0862 15.041 12.0862C13.188 12.0862 12.905 13.5312 12.905 15.0252V20.6922H9.351V9.24023H12.765V10.8012H12.811C13.288 9.90123 14.448 8.95123 16.181 8.95123C19.782 8.95123 20.448 11.3212 20.448 14.4062L20.447 20.6922ZM5.337 7.67323C4.193 7.67323 3.274 6.74723 3.274 5.60823C3.274 4.47023 4.194 3.54523 5.337 3.54523C6.477 3.54523 7.401 4.47023 7.401 5.60823C7.401 6.74723 6.476 7.67323 5.337 7.67323ZM7.119 20.6922H3.555V9.24023H7.119V20.6922ZM22.225 0.240234H1.771C0.792 0.240234 0 1.01423 0 1.96923V22.5112C0 23.4672 0.792 24.2402 1.771 24.2402H22.222C23.2 24.2402 24 23.4672 24 22.5112V1.96923C24 1.01423 23.2 0.240234 22.222 0.240234H22.225Z" fill="white"/>
</g>
<defs>
<clipPath id="clip0_65_76">
<rect width="24" height="24" fill="white" transform="translate(0 0.240234)"/>
</clipPath>
</defs>
</svg>
